<?xml version="1.0" standalone="no"?>
<!DOCTYPE svg PUBLIC "-//W3C//DTD SVG 20010904//EN"
 "http://www.w3.org/TR/2001/REC-SVG-20010904/DTD/svg10.dtd">
<svg version="1.0" xmlns="http://www.w3.org/2000/svg"
 width="796.000000pt" height="796.000000pt" viewBox="0 0 796.000000 796.000000"
 preserveAspectRatio="xMidYMid meet">
<g transform="translate(0.000000,796.000000) scale(0.100000,-0.100000)"
fill="#000000" stroke="none">
<path d="M3650 7945 c-406 -39 -742 -115 -1110 -252 -115 -43 -129 -48 -305
-133 -469 -224 -898 -553 -1270 -975 -106 -120 -283 -361 -379 -515 -94 -152
-259 -485 -314 -635 -133 -361 -196 -625 -249 -1040 -25 -196 -25 -644 0 -840
53 -415 116 -679 249 -1040 55 -150 220 -483 314 -635 401 -644 990 -1176
1649 -1490 176 -85 190 -90 305 -133 305 -113 549 -175 905 -229 136 -21 185
-23 535 -23 404 0 461 4 740 55 635 117 1191 361 1687 740 214 163 500 441
685 665 87 105 328 451 328 470 0 4 9 19 20 35 20 27 160 298 160 309 0 3 -5
0 -12 -7 -9 -9 -150 -12 -572 -12 -309 0 -579 3 -601 6 -37 6 -75 42 -460 425
l-421 419 -267 0 c-246 0 -268 -1 -273 -17 -3 -10 -21 -50 -40 -89 -92 -194
-319 -309 -530 -269 -209 40 -345 159 -405 355 -40 131 -26 257 43 394 93 184
339 295 549 246 177 -40 312 -163 378 -342 l11 -28 289 0 c158 0 304 -3 322
-6 28 -6 109 -81 454 -425 l420 -419 605 -2 605 -3 18 45 c45 112 147 457 147
496 0 12 -112 14 -720 14 -596 0 -726 2 -753 14 -18 8 -212 194 -442 425
l-410 411 -1063 0 c-1064 0 -1064 0 -1069 -20 -3 -12 -20 -51 -38 -88 -97
-202 -325 -314 -545 -268 -231 48 -366 193 -409 439 -21 115 38 298 128 399
107 121 310 187 468 154 165 -34 289 -128 356 -267 19 -41 38 -82 41 -91 5
-17 67 -18 1106 -18 784 0 1108 -3 1123 -11 12 -6 209 -197 437 -425 l415
-414 715 2 715 3 17 120 c10 66 20 191 24 278 l7 157 -772 0 c-639 0 -777 2
-804 14 -18 8 -212 194 -442 425 l-410 411 -1856 0 -1857 0 -46 -95 c-77 -157
-187 -245 -351 -280 -87 -18 -113 -18 -200 0 -154 32 -282 124 -343 247 -82
164 -83 318 -2 484 92 189 334 299 551 250 178 -40 299 -149 373 -338 l15 -38
1903 0 c1639 0 1906 -2 1924 -14 11 -8 204 -200 429 -425 l409 -411 739 0 740
0 -6 148 c-14 363 -113 821 -261 1207 -60 159 -170 390 -238 504 -21 34 -38
65 -38 68 0 18 -246 369 -328 468 -185 224 -471 502 -685 665 -496 379 -1053
624 -1687 740 -363 66 -745 86 -1070 55z"/>
</g>
</svg>
